<svg width="20" height="20" viewBox="0 0 20 20" fill="none" xmlns="http://www.w3.org/2000/svg">
<path d="M18.8248 10.7273L19.9938 4.29899C20.0039 4.24357 20.0016 4.18661 19.9873 4.13215C19.9729 4.07768 19.9467 4.02704 19.9106 3.9838C19.8745 3.94056 19.8294 3.90577 19.7784 3.88191C19.7273 3.85804 19.6717 3.84567 19.6153 3.84568H3.78249L3.25557 0.947383C3.20735 0.681471 3.06725 0.440941 2.85973 0.267787C2.65222 0.0946325 2.39047 -0.000145297 2.12019 1.67193e-07H0.384615C0.282608 1.67193e-07 0.18478 0.0405171 0.112651 0.112638C0.0405218 0.184758 0 0.282574 0 0.384568C0 0.486562 0.0405218 0.584378 0.112651 0.656498C0.18478 0.728619 0.282608 0.769136 0.384615 0.769136H2.12019C2.21027 0.769085 2.29751 0.800668 2.36668 0.858373C2.43586 0.916079 2.48256 0.99624 2.49865 1.08487L5.17941 15.8269C4.80236 16.1015 4.51736 16.4838 4.36198 16.9236C4.2066 17.3633 4.18813 17.8398 4.30899 18.2903C4.42986 18.7407 4.6844 19.144 5.03906 19.4469C5.39372 19.7499 5.83186 19.9382 6.29573 19.9872C6.7596 20.0362 7.22742 19.9435 7.63755 19.7214C8.04767 19.4992 8.38085 19.158 8.59317 18.7427C8.80548 18.3274 8.88697 17.8576 8.82689 17.3951C8.76681 16.9326 8.56799 16.4991 8.25662 16.1518H14.8203C14.4683 16.5455 14.2621 17.0481 14.2361 17.5755C14.2101 18.1029 14.366 18.6233 14.6776 19.0496C14.9892 19.476 15.4378 19.7825 15.9482 19.9179C16.4587 20.0533 17.0002 20.0095 17.4822 19.7937C17.9642 19.5779 18.3576 19.2033 18.5966 18.7324C18.8355 18.2615 18.9056 17.7228 18.7952 17.2064C18.6847 16.69 18.4003 16.2272 17.9895 15.8953C17.5788 15.5633 17.0666 15.3824 16.5384 15.3827H5.88037L5.32095 12.3062H16.9328C17.3832 12.3063 17.8194 12.1483 18.1651 11.8598C18.5109 11.5712 18.7444 11.1704 18.8248 10.7273ZM8.07691 17.6901C8.07691 17.9944 7.98668 18.2918 7.81763 18.5447C7.64858 18.7977 7.40831 18.9949 7.12719 19.1113C6.84607 19.2277 6.53674 19.2582 6.23831 19.1988C5.93988 19.1395 5.66575 18.993 5.45059 18.7778C5.23544 18.5627 5.08891 18.2886 5.02955 17.9902C4.97019 17.6918 5.00066 17.3825 5.1171 17.1014C5.23354 16.8204 5.43073 16.5801 5.68373 16.4111C5.93672 16.2421 6.23417 16.1518 6.53845 16.1518C6.94633 16.1523 7.33738 16.3145 7.6258 16.6029C7.91421 16.8913 8.07645 17.2823 8.07691 17.6901ZM18.0769 17.6901C18.0769 17.9944 17.9867 18.2918 17.8176 18.5447C17.6486 18.7977 17.4083 18.9949 17.1272 19.1113C16.8461 19.2277 16.5367 19.2582 16.2383 19.1988C15.9399 19.1395 15.6657 18.993 15.4506 18.7778C15.2354 18.5627 15.0889 18.2886 15.0295 17.9902C14.9702 17.6918 15.0006 17.3825 15.1171 17.1014C15.2335 16.8204 15.4307 16.5801 15.6837 16.4111C15.9367 16.2421 16.2341 16.1518 16.5384 16.1518C16.9463 16.1523 17.3374 16.3145 17.6258 16.6029C17.9142 16.8913 18.0764 17.2823 18.0769 17.6901ZM3.9224 4.61481H19.1545L18.0679 10.5897C18.0197 10.8556 17.8797 11.0961 17.6722 11.2692C17.4648 11.4423 17.2031 11.5371 16.9328 11.537H5.18114L3.9224 4.61481Z" fill="#323232"/>
</svg>
