<svg width="20" height="18" viewBox="0 0 20 18" fill="none" xmlns="http://www.w3.org/2000/svg">
<path d="M15 0C12.9169 0 11.3406 1.16934 10 2.39125C8.72252 1.0946 7.08314 0 5 0C2.06624 0 0 2.41276 0 5.04376C0 6.45519 0.604379 7.47208 1.26624 8.42677L9.03686 17.3378C9.90938 18.2207 10.0738 18.2207 10.9462 17.3378L18.7343 8.42677C19.5125 7.47208 20 6.45519 20 5.04376C20 2.41279 17.9337 0 15 0ZM17.5 8.1793L10 16.7388L2.5 8.14401C1.60314 6.95138 1.25 6.14674 1.25 5.04376C1.25 2.98847 2.78438 1.13824 5 1.12089C6.82252 1.10654 8.88814 2.88682 10 4.22892C11.0825 2.93346 13.1775 1.12089 15 1.12089C17.1569 1.12089 18.75 2.98847 18.75 5.04376C18.75 6.14674 18.4706 7.01115 17.5 8.1793Z" fill="#323232"/>
</svg>
