<svg width="20" height="20" viewBox="0 0 20 20" fill="none" xmlns="http://www.w3.org/2000/svg">
<path d="M7.77774 0C3.48221 0 0 3.48221 0 7.77774C0 12.0733 3.48221 15.5555 7.77774 15.5555C9.67551 15.5555 11.4144 14.876 12.7644 13.7466L18.8144 19.7966C18.8789 19.8611 18.9554 19.9122 19.0397 19.9471C19.1239 19.982 19.2143 20 19.3055 20C19.3967 20 19.487 19.982 19.5713 19.9471C19.6555 19.9122 19.7321 19.8611 19.7966 19.7966C19.8611 19.7321 19.9122 19.6555 19.9471 19.5713C19.982 19.487 20 19.3967 20 19.3055C20 19.2143 19.982 19.1239 19.9471 19.0397C19.9122 18.9554 19.8611 18.8789 19.7966 18.8144L13.7466 12.7644C14.9176 11.3668 15.5582 9.60104 15.5555 7.77774C15.5555 3.48221 12.0733 0 7.77774 0ZM1.38888 7.77774C1.38888 4.24942 4.24942 1.38888 7.77774 1.38888C11.3061 1.38888 14.1666 4.24942 14.1666 7.77774C14.1666 11.3061 11.3061 14.1666 7.77774 14.1666C4.24942 14.1666 1.38888 11.3061 1.38888 7.77774Z" fill="#323232"/>
</svg>
