<svg width="20" height="20" viewBox="0 0 20 20" fill="none" xmlns="http://www.w3.org/2000/svg">
<path d="M10 0C4.47581 0 0 4.47581 0 10C0 15.5242 4.47581 20 10 20C15.5242 20 20 15.5242 20 10C20 4.47581 15.5242 0 10 0ZM18.7097 10C18.7097 14.7863 14.8347 18.7097 10 18.7097C5.21371 18.7097 1.29032 14.8347 1.29032 10C1.29032 5.21371 5.16532 1.29032 10 1.29032C14.7863 1.29032 18.7097 5.16532 18.7097 10ZM12.7056 13.5605L9.43145 11.1815C9.30645 11.0887 9.23387 10.9435 9.23387 10.7903V4.35484C9.23387 4.08871 9.45161 3.87097 9.71774 3.87097H10.2823C10.5484 3.87097 10.7661 4.08871 10.7661 4.35484V10.254L13.6089 12.3226C13.8266 12.4798 13.871 12.7823 13.7137 13L13.3831 13.4556C13.2258 13.6694 12.9234 13.7177 12.7056 13.5605Z" fill="white"/>
</svg>
