<svg width="30" height="31" viewBox="0 0 30 31" fill="none" xmlns="http://www.w3.org/2000/svg">
<path d="M15 11.7746C14.2936 11.7749 13.6032 11.9877 13.0159 12.3863C12.4287 12.7848 11.9711 13.3511 11.701 14.0136C11.4308 14.6761 11.3603 15.405 11.4983 16.1082C11.6362 16.8114 11.9765 17.4572 12.4761 17.9641C12.9757 18.471 13.6122 18.8162 14.305 18.9559C14.9978 19.0957 15.7159 19.0238 16.3685 18.7494C17.0211 18.475 17.5789 18.0103 17.9713 17.4141C18.3638 16.8179 18.5732 16.117 18.5732 15.4C18.5725 14.4385 18.1958 13.5166 17.5258 12.8368C16.8558 12.157 15.9473 11.775 15 11.7746ZM23.3511 8.98788C23.1693 8.52014 22.8947 8.09532 22.5444 7.73977C22.1941 7.38422 21.7756 7.10551 21.3147 6.92095C19.9085 6.35749 16.5603 6.48391 15 6.48391C13.4397 6.48391 10.0949 6.35273 8.6846 6.92095C8.22378 7.10551 7.80524 7.38422 7.45494 7.73977C7.10464 8.09532 6.83005 8.52014 6.64821 8.98788C6.09375 10.4152 6.21763 13.8171 6.21763 15.3994C6.21763 16.9817 6.09375 20.3794 6.65089 21.8115C6.83273 22.2793 7.10732 22.7041 7.45761 23.0596C7.80791 23.4152 8.22646 23.6939 8.68728 23.8785C10.0935 24.4419 13.4417 24.3155 15.0027 24.3155C16.5636 24.3155 19.9071 24.4467 21.3174 23.8785C21.7782 23.6939 22.1968 23.4152 22.5471 23.0596C22.8974 22.7041 23.172 22.2793 23.3538 21.8115C23.9129 20.3842 23.7844 16.9824 23.7844 15.4C23.7844 13.8177 23.9129 10.4207 23.3538 8.98856L23.3511 8.98788ZM15 20.9735C13.914 20.9735 12.8523 20.6466 11.9493 20.0342C11.0463 19.4218 10.3425 18.5513 9.92691 17.5329C9.5113 16.5145 9.40256 15.3939 9.61444 14.3127C9.82631 13.2316 10.3493 12.2385 11.1172 11.459C11.8852 10.6796 12.8636 10.1488 13.9287 9.9337C14.9939 9.71865 16.098 9.82902 17.1013 10.2509C18.1047 10.6727 18.9623 11.3871 19.5657 12.3036C20.169 13.2202 20.4911 14.2977 20.4911 15.4C20.492 16.1322 20.3505 16.8574 20.0749 17.534C19.7992 18.2106 19.3948 18.8253 18.8847 19.3431C18.3747 19.8608 17.769 20.2713 17.1024 20.5511C16.4358 20.8308 15.7213 20.9744 15 20.9735ZM20.7174 10.8937C20.4639 10.8939 20.216 10.8177 20.0052 10.6748C19.7943 10.5319 19.6299 10.3288 19.5328 10.0911C19.4357 9.85341 19.4102 9.59182 19.4596 9.33942C19.509 9.08702 19.631 8.85515 19.8102 8.67315C19.9894 8.49114 20.2178 8.36717 20.4664 8.31692C20.7151 8.26667 20.9728 8.29239 21.2071 8.39084C21.4413 8.48928 21.6415 8.65602 21.7824 8.86998C21.9233 9.08393 21.9984 9.33547 21.9984 9.5928C21.9991 9.76368 21.9666 9.93302 21.9027 10.0911C21.8388 10.2492 21.7447 10.3929 21.626 10.514C21.5072 10.6352 21.366 10.7313 21.2106 10.7969C21.0551 10.8625 20.8884 10.8964 20.7201 10.8964L20.7174 10.8937ZM26.7857 0.175049H3.21429C2.3618 0.175049 1.54424 0.518776 0.941442 1.13061C0.338647 1.74245 0 2.57228 0 3.43755L0 27.3625C0 28.2278 0.338647 29.0576 0.941442 29.6695C1.54424 30.2813 2.3618 30.625 3.21429 30.625H26.7857C27.6382 30.625 28.4558 30.2813 29.0586 29.6695C29.6614 29.0576 30 28.2278 30 27.3625V3.43755C30 2.57228 29.6614 1.74245 29.0586 1.13061C28.4558 0.518776 27.6382 0.175049 26.7857 0.175049ZM25.6393 19.886C25.5529 21.628 25.1612 23.1716 23.9083 24.4399C22.6554 25.7082 21.1359 26.114 19.4217 26.1969C17.6531 26.2982 12.3509 26.2982 10.5824 26.1969C8.86607 26.1092 7.35067 25.7109 6.09576 24.4399C4.84085 23.1689 4.44643 21.6246 4.36473 19.886C4.26496 18.0903 4.26496 12.7078 4.36473 10.9141C4.45112 9.17207 4.83817 7.6285 6.09576 6.36021C7.35335 5.09191 8.87277 4.69089 10.5824 4.60797C12.3509 4.5067 17.6531 4.5067 19.4217 4.60797C21.1379 4.69565 22.658 5.09395 23.9083 6.36496C25.1585 7.63598 25.5576 9.18023 25.6393 10.9223C25.7391 12.7112 25.7391 18.0889 25.6393 19.886Z" fill="#F1F1F1"/>
</svg>
