<svg width="30" height="31" viewBox="0 0 30 31" fill="none" xmlns="http://www.w3.org/2000/svg">
<path d="M26.7857 0.175049H3.21429C1.43973 0.175049 0 1.63638 0 3.43755V27.3625C0 29.1637 1.43973 30.625 3.21429 30.625H26.7857C28.5603 30.625 30 29.1637 30 27.3625V3.43755C30 1.63638 28.5603 0.175049 26.7857 0.175049ZM23.5112 10.9685C23.5246 11.1588 23.5246 11.3559 23.5246 11.5462C23.5246 17.4391 19.1049 24.2292 11.029 24.2292C8.53795 24.2292 6.22768 23.4951 4.28571 22.2309C4.64062 22.2717 4.98214 22.2853 5.34375 22.2853C7.39955 22.2853 9.28795 21.5784 10.7946 20.3822C8.86607 20.3414 7.24554 19.0568 6.68973 17.2896C7.36607 17.3915 7.97545 17.3915 8.67188 17.208C6.66295 16.7934 5.15625 14.999 5.15625 12.8308V12.7765C5.73884 13.1095 6.42187 13.3134 7.13839 13.3406C6.536 12.9339 6.04218 12.3821 5.70098 11.7346C5.35979 11.087 5.18185 10.3638 5.18304 9.6295C5.18304 8.80028 5.39732 8.03903 5.77902 7.37974C7.94196 10.0849 11.1897 11.8521 14.8326 12.0424C14.2098 9.01778 16.4397 6.56411 19.1183 6.56411C20.3839 6.56411 21.5223 7.10106 22.3259 7.97106C23.317 7.78075 24.2679 7.40692 25.1116 6.89716C24.7835 7.93028 24.0938 8.80028 23.183 9.35083C24.067 9.25567 24.9241 9.00419 25.7143 8.65755C25.1183 9.54794 24.3683 10.3364 23.5112 10.9685Z" fill="#F1F1F1"/>
</svg>
