<svg width="30" height="31" viewBox="0 0 30 31" fill="none" xmlns="http://www.w3.org/2000/svg">
<path d="M26.7857 0.175049H3.21429C2.3618 0.175049 1.54424 0.518776 0.941442 1.13061C0.338647 1.74245 0 2.57228 0 3.43755L0 27.3625C0 28.2278 0.338647 29.0576 0.941442 29.6695C1.54424 30.2813 2.3618 30.625 3.21429 30.625H12.4051V20.2727H8.18638V15.4H12.4051V11.6862C12.4051 7.46198 14.8828 5.12861 18.6777 5.12861C20.4951 5.12861 22.3955 5.45758 22.3955 5.45758V9.60367H20.3016C18.2384 9.60367 17.5949 10.9032 17.5949 12.2361V15.4H22.2007L21.4641 20.2727H17.5949V30.625H26.7857C27.6382 30.625 28.4558 30.2813 29.0586 29.6695C29.6614 29.0576 30 28.2278 30 27.3625V3.43755C30 2.57228 29.6614 1.74245 29.0586 1.13061C28.4558 0.518776 27.6382 0.175049 26.7857 0.175049Z" fill="#F1F1F1"/>
</svg>
